<svg xmlns="http://www.w3.org/2000/svg" width="45.662" height="42.165" viewBox="0 0 45.662 42.165">
  <g id="Icon_ionic-ios-book" data-name="Icon ionic-ios-book" transform="translate(-3.382 -4.5)">
    <path id="Path_6" data-name="Path 6" d="M14.133,4.507c5.941,0,10.982,3.064,10.982,9.005v1.757h0V46.446a.216.216,0,0,1-.417.077v-.011c-1.131-3.756-4.2-7.424-9.038-7.742A13.939,13.939,0,0,0,5.436,42.844a1.184,1.184,0,0,1-.725.318H4.217c-.406,0-.835-.3-.835-.67V10.668C3.371,7.143,8.192,4.507,14.133,4.507Z" transform="translate(0 0.004)" fill="#f1b61b"/>
    <path id="Path_7" data-name="Path 7" d="M29.685,4.5C23.744,4.5,18.7,7.564,18.7,13.505v1.757h0V46.439a.216.216,0,0,0,.417.077v-.011c1.131-3.756,4.327-7.457,9.038-7.742,3.613-.22,7.017,1.208,10.224,4.074a1.249,1.249,0,0,0,.725.318H39.6c.406,0,.835-.3.835-.67V10.65C40.447,7.136,35.626,4.5,29.685,4.5Z" transform="translate(8.608)" fill="#f1b61b"/>
  </g>
</svg>
