<svg xmlns="http://www.w3.org/2000/svg" width="37" height="49.333" viewBox="0 0 37 49.333">
  <path id="Icon_awesome-file-alt" data-name="Icon awesome-file-alt" d="M21.583,13.1V0H2.313A2.307,2.307,0,0,0,0,2.313V47.021a2.307,2.307,0,0,0,2.313,2.313H34.688A2.307,2.307,0,0,0,37,47.021v-31.6H23.9A2.319,2.319,0,0,1,21.583,13.1Zm6.167,22.74A1.16,1.16,0,0,1,26.594,37H10.406A1.16,1.16,0,0,1,9.25,35.844v-.771a1.16,1.16,0,0,1,1.156-1.156H26.594a1.16,1.16,0,0,1,1.156,1.156Zm0-6.167a1.16,1.16,0,0,1-1.156,1.156H10.406A1.16,1.16,0,0,1,9.25,29.677v-.771a1.16,1.16,0,0,1,1.156-1.156H26.594a1.16,1.16,0,0,1,1.156,1.156Zm0-6.937v.771a1.16,1.16,0,0,1-1.156,1.156H10.406A1.16,1.16,0,0,1,9.25,23.51V22.74a1.16,1.16,0,0,1,1.156-1.156H26.594A1.16,1.16,0,0,1,27.75,22.74ZM37,11.746v.588H24.667V0h.588a2.311,2.311,0,0,1,1.638.674l9.433,9.443A2.305,2.305,0,0,1,37,11.746Z" fill="#f1b61b"/>
</svg>
