<svg xmlns="http://www.w3.org/2000/svg" width="18.499" height="49.333" viewBox="0 0 18.499 49.333">
  <g id="Icon_ionic-md-man" data-name="Icon ionic-md-man" transform="translate(-12.094 -2.25)">
    <path id="Path_4" data-name="Path 4" d="M19.485,10.464a4.107,4.107,0,1,0-4.107-4.107A4.093,4.093,0,0,0,19.485,10.464Z" transform="translate(1.859)" fill="#f1b61b"/>
    <path id="Path_5" data-name="Path 5" d="M25.461,8.086H17.225a5.271,5.271,0,0,0-5.131,5.329V25.924a1.71,1.71,0,1,0,3.413,0V14.362h.661V45.811a2.37,2.37,0,1,0,4.735,0V27.686h.881V45.822a2.369,2.369,0,1,0,4.735-.011V14.362h.551V25.924a1.763,1.763,0,1,0,3.524,0V13.415A5.286,5.286,0,0,0,25.461,8.086Z" transform="translate(0 3.303)" fill="#f1b61b"/>
  </g>
</svg>
