<svg xmlns="http://www.w3.org/2000/svg" width="27.744" height="49.333" viewBox="0 0 27.744 49.333">
  <path id="Icon_awesome-dollar-sign" data-name="Icon awesome-dollar-sign" d="M20.156,22.489,9.75,19.444a2.842,2.842,0,0,1,.8-5.569h6.388a5.881,5.881,0,0,1,3.3,1.012,1.5,1.5,0,0,0,1.879-.193l3.353-3.276a1.562,1.562,0,0,0-.173-2.361,13.625,13.625,0,0,0-8.335-2.891V1.542A1.546,1.546,0,0,0,15.416,0H12.332a1.546,1.546,0,0,0-1.542,1.542V6.167H10.55A10.557,10.557,0,0,0,.047,17.691,11.03,11.03,0,0,0,8.122,27L18,29.889a2.842,2.842,0,0,1-.8,5.569H10.81a5.881,5.881,0,0,1-3.3-1.012,1.5,1.5,0,0,0-1.879.193L2.283,37.915a1.562,1.562,0,0,0,.173,2.361,13.625,13.625,0,0,0,8.335,2.891v4.625a1.546,1.546,0,0,0,1.542,1.542h3.083a1.546,1.546,0,0,0,1.542-1.542V43.148a10.884,10.884,0,0,0,10.185-7,10.581,10.581,0,0,0-6.986-13.653Z" transform="translate(-0.003)" fill="#f1b61b"/>
</svg>
