<svg xmlns="http://www.w3.org/2000/svg" width="57.249" height="36.432" viewBox="0 0 57.249 36.432">
  <path id="Icon_material-group" data-name="Icon material-group" d="M40.533,23.113a7.807,7.807,0,1,0-7.807-7.807A7.774,7.774,0,0,0,40.533,23.113Zm-20.818,0a7.807,7.807,0,1,0-7.807-7.807A7.774,7.774,0,0,0,19.716,23.113Zm0,5.2c-6.063,0-18.216,3.045-18.216,9.108v6.506H37.931V37.426C37.931,31.362,25.779,28.318,19.716,28.318Zm20.818,0c-.755,0-1.613.052-2.524.13,3.019,2.186,5.126,5.126,5.126,8.978v6.506H58.749V37.426C58.749,31.362,46.6,28.318,40.533,28.318Z" transform="translate(-1.5 -7.5)" fill="#f1b61b"/>
</svg>
