<svg xmlns="http://www.w3.org/2000/svg" width="37.25" height="49.667" viewBox="0 0 37.25 49.667">
  <g id="Group_10" data-name="Group 10" transform="translate(-386.695 -8072)">
    <path id="Icon_awesome-file" data-name="Icon awesome-file" d="M21.729,13.193V0H2.328A2.323,2.323,0,0,0,0,2.328V47.339a2.323,2.323,0,0,0,2.328,2.328H34.922a2.323,2.323,0,0,0,2.328-2.328V15.521H24.057A2.335,2.335,0,0,1,21.729,13.193ZM37.25,11.825v.592H24.833V0h.592a2.326,2.326,0,0,1,1.649.679l9.5,9.507A2.321,2.321,0,0,1,37.25,11.825Z" transform="translate(386.695 8072)" fill="#f1b61b"/>
    <path id="Icon_awesome-dollar-sign" data-name="Icon awesome-dollar-sign" d="M7.489,8.354,3.623,7.223a1.056,1.056,0,0,1,.3-2.069H6.293a2.185,2.185,0,0,1,1.224.376.558.558,0,0,0,.7-.072L9.461,4.241A.58.58,0,0,0,9.4,3.364,5.061,5.061,0,0,0,6.3,2.291V.573A.574.574,0,0,0,5.728,0H4.582A.574.574,0,0,0,4.01.573V2.291H3.92a3.921,3.921,0,0,0-3.9,4.281,4.1,4.1,0,0,0,3,3.457L6.687,11.1a1.056,1.056,0,0,1-.3,2.069H4.017A2.185,2.185,0,0,1,2.793,12.8a.558.558,0,0,0-.7.072L.849,14.084a.58.58,0,0,0,.064.877,5.061,5.061,0,0,0,3.1,1.074v1.718a.574.574,0,0,0,.573.573H5.728a.574.574,0,0,0,.573-.573V16.027a4.043,4.043,0,0,0,3.783-2.6A3.93,3.93,0,0,0,7.489,8.354Z" transform="translate(399.692 8093.838)" fill="#fff"/>
  </g>
</svg>
